<?xml version="1.0" encoding="utf-8"?>
<!-- Generator: Adobe Illustrator 25.2.1, SVG Export Plug-In . SVG Version: 6.00 Build 0)  -->
<svg version="1.1" id="Layer_1" xmlns="http://www.w3.org/2000/svg" xmlns:xlink="http://www.w3.org/1999/xlink" x="0px" y="0px"
	 viewBox="0 0 126 126" style="enable-background:new 0 0 126 126;" xml:space="preserve">
<style type="text/css">
	.st0{fill-rule:evenodd;clip-rule:evenodd;fill:#8AC340;}
	.st1{fill:#211F1F;}
	.st2{fill-rule:evenodd;clip-rule:evenodd;fill:#77787B;}
</style>
<g id="XMLID_237_">
	<g id="XMLID_286_">
		<g id="XMLID_318_">
			<path id="XMLID_325_" class="st0" d="M110,38.6c0,14.7-11.9,26.7-26.4,26.7c-14.6,0-26.4-12-26.4-26.7s11.9-26.7,26.4-26.7
				C98.1,11.9,110,23.9,110,38.6z"/>
			<g id="XMLID_319_">
				<g>
					<path class="st0" d="M102.2,93.9C94.3,85.1,90.2,81.3,78,77c-26.3-9.3-28.8-23.8-32.2-31.3c-2.7-7-5.6-15.4-13.7-23.9
						C21.3,10.9,1.2,4.3,0.2,22.4L0,110.9c0.3,8.4,4.3,12.1,13.1,12.3h87.2C118.4,120.7,107,99.2,102.2,93.9z M33.5,116.6
						c-14.6,0-26.5-12-26.5-26.7s11.9-26.7,26.4-26.7s26.4,12,26.4,26.7S47.9,116.6,33.5,116.6z"/>
				</g>
			</g>
		</g>
		
	</g>
	
</g>
</svg>
